<svg width="48" height="48" viewBox="0 0 48 48" fill="none" xmlns="http://www.w3.org/2000/svg">
<mask id="mask0_427_905" style="mask-type:alpha" maskUnits="userSpaceOnUse" x="0" y="0" width="48" height="48">
<rect width="48" height="48" fill="#D9D9D9"/>
</mask>
<g mask="url(#mask0_427_905)">
<path d="M23.4252 41.225C22.9419 41.225 22.5169 41.0744 22.1502 40.7731C21.7835 40.4719 21.6002 40.0402 21.6002 39.4782C21.6002 39.2056 21.6585 38.8994 21.7752 38.5596C21.8919 38.2199 22.0669 37.9417 22.3002 37.725L29.1252 30.95L28.2252 30.05L21.4252 36.825C21.1752 37.075 20.9002 37.2542 20.6002 37.3625C20.3002 37.4708 20.0002 37.525 19.7002 37.525C19.2002 37.525 18.7794 37.3583 18.4377 37.025C18.096 36.6917 17.9252 36.2667 17.9252 35.75C17.9252 35.45 17.9877 35.1417 18.1127 34.825C18.2377 34.5083 18.4002 34.25 18.6002 34.05L25.4252 27.225L24.5002 26.35L17.7252 33.15C17.4919 33.35 17.2169 33.5167 16.9002 33.65C16.5835 33.7833 16.2835 33.85 16.0002 33.85C15.5002 33.85 15.0794 33.6708 14.7377 33.3125C14.396 32.9542 14.2252 32.525 14.2252 32.025C14.2252 31.7417 14.2794 31.45 14.3877 31.15C14.496 30.85 14.6752 30.5833 14.9252 30.35L21.1002 24.125L20.2002 23.25L14.0002 29.425C13.8002 29.6417 13.5419 29.8167 13.2252 29.95C12.9085 30.0833 12.6085 30.15 12.3252 30.15C11.7752 30.15 11.3335 29.9798 11.0002 29.6394C10.6669 29.299 10.5002 28.8722 10.5002 28.359C10.5002 28.0863 10.5669 27.7917 10.7002 27.475C10.8335 27.1583 11.0002 26.9 11.2002 26.7L20.7252 17.175L23.7002 20.125C24.0502 20.5083 24.446 20.7708 24.8877 20.9125C25.3294 21.0542 25.8252 21.125 26.3752 21.125C27.2919 21.125 28.046 20.8375 28.6377 20.2625C29.2294 19.6875 29.5252 18.925 29.5252 17.975C29.5252 17.5086 29.421 17.0542 29.2127 16.6116C29.0044 16.1691 28.7252 15.7569 28.3752 15.375L24.1502 11.2L26.8252 8.525C27.2085 8.14167 27.7002 7.83333 28.3002 7.6C28.9002 7.36667 29.5085 7.25 30.1252 7.25C30.7085 7.25 31.296 7.3625 31.8877 7.5875C32.4794 7.8125 32.9835 8.13333 33.4002 8.55L42.0002 17.125C42.3669 17.525 42.671 18 42.9127 18.55C43.1544 19.1 43.2752 19.7167 43.2752 20.4C43.2752 21.0667 43.1544 21.6792 42.9127 22.2375C42.671 22.7958 42.3752 23.2667 42.0252 23.65L25.1002 40.55C24.9002 40.75 24.6419 40.9125 24.3252 41.0375C24.0085 41.1625 23.7085 41.225 23.4252 41.225ZM9.2002 26.825L6.5252 24.15C5.94186 23.5833 5.5127 22.9 5.2377 22.1C4.9627 21.3 4.8252 20.525 4.8252 19.775C4.8252 19.0083 4.9377 18.325 5.1627 17.725C5.3877 17.125 5.68353 16.625 6.0502 16.225L13.7502 8.55C14.1502 8.15 14.5835 7.83333 15.0502 7.6C15.5169 7.36667 16.0502 7.25 16.6502 7.25C17.2502 7.25 17.8085 7.36667 18.3252 7.6C18.8419 7.83333 19.3002 8.14167 19.7002 8.525L27.4502 16.275C27.6835 16.5083 27.871 16.7936 28.0127 17.1307C28.1544 17.4678 28.2252 17.7576 28.2252 18C28.2252 18.55 28.0577 19.0083 27.7227 19.375C27.3877 19.7417 26.9135 19.925 26.3002 19.925C26.0002 19.925 25.6835 19.8625 25.3502 19.7375C25.0169 19.6125 24.7335 19.4083 24.5002 19.125L20.7252 15.35L9.2002 26.825Z" fill="#D7EB6E"/>
</g>
</svg>
