<svg width="48" height="48" viewBox="0 0 48 48" fill="none" xmlns="http://www.w3.org/2000/svg">
<mask id="mask0_424_887" style="mask-type:alpha" maskUnits="userSpaceOnUse" x="0" y="0" width="48" height="48">
<rect width="48" height="48" fill="#D9D9D9"/>
</mask>
<g mask="url(#mask0_424_887)">
<path d="M22.0001 22.1C20.5984 22.1 19.373 21.5754 18.3238 20.5262C17.2747 19.4771 16.7501 18.2516 16.7501 16.85C16.7501 15.4483 17.2747 14.2229 18.3238 13.1737C19.373 12.1246 20.5984 11.6 22.0001 11.6C23.4018 11.6 24.6272 12.1246 25.6763 13.1737C26.7255 14.2229 27.2501 15.4483 27.2501 16.85C27.2501 18.2516 26.7255 19.4771 25.6763 20.5262C24.6272 21.5754 23.4018 22.1 22.0001 22.1ZM42.1001 42.875L36.9751 37.7C36.2918 38.1833 35.6029 38.525 34.9086 38.725C34.2143 38.925 33.5755 39.025 32.9924 39.025C31.2968 39.025 29.87 38.4404 28.712 37.2713C27.5541 36.1022 26.9751 34.673 26.9751 32.9838C26.9751 31.2946 27.5597 29.8625 28.7288 28.6875C29.8979 27.5125 31.3271 26.925 33.0163 26.925C34.7055 26.925 36.1376 27.5131 37.3126 28.6893C38.4876 29.8655 39.0751 31.2973 39.0751 32.9848C39.0751 33.5782 38.9834 34.2208 38.8001 34.9125C38.6168 35.6041 38.2501 36.275 37.7001 36.925L42.9251 42.1L42.1001 42.875ZM33.0001 37.925C34.3834 37.925 35.5584 37.45 36.5251 36.5C37.4918 35.55 37.9751 34.3833 37.9751 33C37.9751 31.6166 37.4918 30.4416 36.5251 29.475C35.5584 28.5083 34.3834 28.025 33.0001 28.025C31.6168 28.025 30.4501 28.5083 29.5001 29.475C28.5501 30.4416 28.0751 31.6166 28.0751 33C28.0751 34.3833 28.5501 35.55 29.5001 36.5C30.4501 37.45 31.6168 37.925 33.0001 37.925ZM24.6251 27.975C23.9251 29.425 23.5001 30.8333 23.3501 32.2C23.2001 33.5666 23.3834 34.9666 23.9001 36.4H8.6001V34.025C8.6001 33.2204 8.82536 32.53 9.2759 31.9536C9.7264 31.3772 10.3471 30.8768 11.138 30.4524C12.4961 29.7841 14.3918 29.1333 16.8251 28.5C19.2584 27.8666 21.8584 27.6916 24.6251 27.975Z" fill="#D7EB6E"/>
</g>
</svg>
