<svg width="48" height="48" viewBox="0 0 48 48" fill="none" xmlns="http://www.w3.org/2000/svg">
<mask id="mask0_424_893" style="mask-type:alpha" maskUnits="userSpaceOnUse" x="0" y="0" width="48" height="48">
<rect width="48" height="48" fill="#D9D9D9"/>
</mask>
<g mask="url(#mask0_424_893)">
<path d="M19.3751 25.075H22.2751V20.425H25.7751V25.075H28.6751V17.425L24.0001 14.4L19.3751 17.425V25.075ZM24.0001 41.45C19.4834 37.4166 16.0793 33.647 13.7876 30.141C11.4959 26.635 10.3501 23.4661 10.3501 20.6343C10.3501 16.65 11.6543 13.3108 14.2626 10.6165C16.8709 7.92212 20.1168 6.57495 24.0001 6.57495C27.8834 6.57495 31.1293 7.92255 33.7376 10.6178C36.3459 13.313 37.6501 16.6535 37.6501 20.6392C37.6501 23.463 36.5043 26.6291 34.2126 30.1375C31.9209 33.6458 28.5168 37.4166 24.0001 41.45Z" fill="#D7EB6E"/>
</g>
</svg>
