<svg width="48" height="48" viewBox="0 0 48 48" fill="none" xmlns="http://www.w3.org/2000/svg">
<mask id="mask0_427_899" style="mask-type:alpha" maskUnits="userSpaceOnUse" x="0" y="0" width="48" height="48">
<rect width="48" height="48" fill="#D9D9D9"/>
</mask>
<g mask="url(#mask0_427_899)">
<path d="M24 9.30005L42.3 22.95L41.6 23.8L37.4 20.65V39.4H10.6V20.65L6.39995 23.8L5.69995 22.95L24 9.30005ZM17.95 25.1878C17.95 26.3793 18.575 27.6584 19.825 29.025C21.075 30.3917 22.4666 31.7667 24 33.15C25.5833 31.7667 27.0041 30.393 28.2625 29.0289C29.5208 27.6649 30.15 26.3888 30.15 25.2005C30.15 24.2335 29.827 23.4417 29.1812 22.825C28.5354 22.2084 27.7562 21.9 26.8437 21.9C26.2812 21.9 25.7541 22.0334 25.2625 22.3C24.7708 22.5667 24.35 22.8667 24 23.2C23.7 22.8667 23.2958 22.5667 22.7875 22.3C22.2791 22.0334 21.7738 21.9 21.2714 21.9C20.3381 21.9 19.5512 22.2056 18.9107 22.8166C18.2702 23.4277 17.95 24.2181 17.95 25.1878Z" fill="#D7EB6E"/>
</g>
</svg>
