<svg width="292" height="42" viewBox="0 0 292 42" fill="none" xmlns="http://www.w3.org/2000/svg">
<path d="M74.916 33V8.304H81.216L86.004 23.28C86.148 23.712 86.292 24.204 86.436 24.756C86.58 25.308 86.712 25.836 86.832 26.34C86.976 26.844 87.084 27.288 87.156 27.672H87.444C87.492 27.312 87.576 26.88 87.696 26.376C87.816 25.872 87.936 25.344 88.056 24.792C88.2 24.24 88.344 23.724 88.488 23.244L93.312 8.304H99.504V33H95.508V19.464C95.508 18.552 95.52 17.604 95.544 16.62C95.568 15.636 95.592 14.76 95.616 13.992C95.64 13.224 95.652 12.732 95.652 12.516H95.364C95.316 12.78 95.196 13.236 95.004 13.884C94.836 14.508 94.656 15.18 94.464 15.9C94.272 16.62 94.092 17.244 93.924 17.772L88.92 33H85.356L80.352 17.808C80.208 17.352 80.052 16.812 79.884 16.188C79.716 15.564 79.548 14.928 79.38 14.28C79.212 13.632 79.068 13.044 78.948 12.516H78.66C78.684 13.092 78.696 13.8 78.696 14.64C78.72 15.48 78.744 16.332 78.768 17.196C78.792 18.036 78.804 18.792 78.804 19.464V33H74.916ZM111.921 33.432C109.953 33.432 108.285 33.084 106.917 32.388C105.573 31.668 104.553 30.576 103.857 29.112C103.185 27.648 102.849 25.788 102.849 23.532C102.849 21.252 103.185 19.392 103.857 17.952C104.553 16.488 105.573 15.408 106.917 14.712C108.285 13.992 109.953 13.632 111.921 13.632C113.937 13.632 115.617 13.992 116.961 14.712C118.305 15.408 119.313 16.488 119.985 17.952C120.681 19.392 121.029 21.252 121.029 23.532C121.029 25.788 120.681 27.648 119.985 29.112C119.313 30.576 118.305 31.668 116.961 32.388C115.617 33.084 113.937 33.432 111.921 33.432ZM111.921 30.336C113.121 30.336 114.105 30.108 114.873 29.652C115.641 29.172 116.205 28.452 116.565 27.492C116.949 26.532 117.141 25.32 117.141 23.856V23.208C117.141 21.744 116.949 20.532 116.565 19.572C116.205 18.612 115.641 17.904 114.873 17.448C114.105 16.968 113.121 16.728 111.921 16.728C110.745 16.728 109.773 16.968 109.005 17.448C108.237 17.904 107.661 18.612 107.277 19.572C106.917 20.532 106.737 21.744 106.737 23.208V23.856C106.737 25.32 106.917 26.532 107.277 27.492C107.661 28.452 108.237 29.172 109.005 29.652C109.773 30.108 110.745 30.336 111.921 30.336ZM130.362 33.432C128.826 33.432 127.494 33.084 126.366 32.388C125.238 31.692 124.362 30.612 123.738 29.148C123.138 27.684 122.838 25.788 122.838 23.46C122.838 21.18 123.15 19.32 123.774 17.88C124.398 16.44 125.262 15.372 126.366 14.676C127.47 13.98 128.742 13.632 130.182 13.632C131.022 13.632 131.802 13.728 132.522 13.92C133.242 14.112 133.878 14.412 134.43 14.82C135.006 15.228 135.486 15.744 135.87 16.368H136.122V6.972H139.866V33H136.806L136.446 30.408H136.194C135.57 31.416 134.742 32.172 133.71 32.676C132.702 33.18 131.586 33.432 130.362 33.432ZM131.406 30.192C132.51 30.192 133.398 29.952 134.07 29.472C134.766 28.968 135.282 28.248 135.618 27.312C135.954 26.352 136.122 25.188 136.122 23.82V23.316C136.122 22.164 136.014 21.18 135.798 20.364C135.582 19.548 135.27 18.888 134.862 18.384C134.454 17.856 133.962 17.472 133.386 17.232C132.81 16.992 132.162 16.872 131.442 16.872C130.338 16.872 129.438 17.1 128.742 17.556C128.046 17.988 127.53 18.672 127.194 19.608C126.882 20.544 126.726 21.756 126.726 23.244V23.892C126.726 25.38 126.894 26.592 127.23 27.528C127.566 28.44 128.07 29.112 128.742 29.544C129.438 29.976 130.326 30.192 131.406 30.192ZM151.541 33.432C149.597 33.432 147.965 33.084 146.645 32.388C145.349 31.668 144.365 30.576 143.693 29.112C143.021 27.648 142.685 25.788 142.685 23.532C142.685 21.252 143.021 19.392 143.693 17.952C144.365 16.488 145.361 15.408 146.681 14.712C148.001 13.992 149.645 13.632 151.613 13.632C153.413 13.632 154.913 13.98 156.113 14.676C157.337 15.348 158.261 16.38 158.885 17.772C159.509 19.164 159.821 20.916 159.821 23.028V24.468H146.537C146.585 25.812 146.789 26.94 147.149 27.852C147.509 28.74 148.049 29.4 148.769 29.832C149.513 30.24 150.449 30.444 151.577 30.444C152.273 30.444 152.897 30.36 153.449 30.192C154.001 30 154.469 29.736 154.853 29.4C155.237 29.04 155.537 28.62 155.753 28.14C155.969 27.636 156.077 27.072 156.077 26.448H159.749C159.749 27.576 159.557 28.572 159.173 29.436C158.789 30.3 158.225 31.032 157.481 31.632C156.761 32.208 155.897 32.652 154.889 32.964C153.881 33.276 152.765 33.432 151.541 33.432ZM146.609 21.732H155.897C155.897 20.796 155.789 20.016 155.573 19.392C155.381 18.744 155.093 18.216 154.709 17.808C154.325 17.4 153.869 17.112 153.341 16.944C152.813 16.752 152.213 16.656 151.541 16.656C150.533 16.656 149.669 16.836 148.949 17.196C148.253 17.556 147.713 18.12 147.329 18.888C146.945 19.632 146.705 20.58 146.609 21.732ZM162.627 33V14.064H165.723L166.047 17.124H166.263C166.479 16.524 166.755 15.96 167.091 15.432C167.451 14.904 167.907 14.472 168.459 14.136C169.035 13.8 169.731 13.632 170.547 13.632C170.931 13.632 171.267 13.668 171.555 13.74C171.867 13.812 172.107 13.872 172.275 13.92V17.448H171.015C170.247 17.448 169.563 17.568 168.963 17.808C168.387 18.048 167.895 18.408 167.487 18.888C167.103 19.344 166.815 19.908 166.623 20.58C166.455 21.252 166.371 22.008 166.371 22.848V33H162.627ZM174.072 33V14.064H177.168L177.492 16.764H177.744C178.2 16.068 178.74 15.492 179.364 15.036C179.988 14.58 180.672 14.232 181.416 13.992C182.184 13.752 183.024 13.632 183.936 13.632C185.136 13.632 186.192 13.848 187.104 14.28C188.016 14.688 188.724 15.36 189.228 16.296C189.756 17.232 190.02 18.492 190.02 20.076V33H186.276V20.652C186.276 19.932 186.18 19.332 185.988 18.852C185.82 18.372 185.568 17.988 185.232 17.7C184.896 17.412 184.5 17.208 184.044 17.088C183.588 16.968 183.084 16.908 182.532 16.908C181.668 16.908 180.876 17.124 180.156 17.556C179.46 17.964 178.896 18.54 178.464 19.284C178.032 20.028 177.816 20.904 177.816 21.912V33H174.072ZM199.552 33L203.908 8.304H216.508C217.924 8.304 219.076 8.532 219.964 8.988C220.876 9.42 221.548 10.032 221.98 10.824C222.436 11.616 222.664 12.516 222.664 13.524C222.664 15.228 222.364 16.656 221.764 17.808C221.164 18.96 220.408 19.872 219.496 20.544C218.584 21.216 217.636 21.708 216.652 22.02L220.216 33H218.128L214.672 22.38H203.368L201.496 33H199.552ZM203.692 20.652H214.06C215.212 20.652 216.292 20.376 217.3 19.824C218.308 19.272 219.124 18.492 219.748 17.484C220.372 16.452 220.684 15.216 220.684 13.776C220.684 12.6 220.324 11.688 219.604 11.04C218.884 10.368 217.78 10.032 216.292 10.032H205.564L203.692 20.652ZM231.005 33.432C229.493 33.432 228.233 33.168 227.225 32.64C226.241 32.112 225.497 31.332 224.993 30.3C224.513 29.268 224.273 28.008 224.273 26.52C224.273 25.896 224.309 25.272 224.381 24.648C224.453 24 224.549 23.376 224.669 22.776C225.053 20.952 225.629 19.356 226.397 17.988C227.165 16.62 228.185 15.552 229.457 14.784C230.753 14.016 232.337 13.632 234.209 13.632C235.745 13.632 236.993 13.92 237.953 14.496C238.937 15.072 239.657 15.864 240.113 16.872C240.593 17.88 240.833 19.044 240.833 20.364C240.833 20.916 240.785 21.504 240.689 22.128C240.617 22.728 240.509 23.352 240.365 24H226.361C226.289 24.456 226.229 24.888 226.181 25.296C226.157 25.68 226.145 26.052 226.145 26.412C226.145 27.708 226.337 28.764 226.721 29.58C227.105 30.372 227.681 30.96 228.449 31.344C229.217 31.704 230.153 31.884 231.257 31.884C231.929 31.884 232.589 31.8 233.237 31.632C233.909 31.44 234.545 31.152 235.145 30.768C235.745 30.36 236.285 29.832 236.765 29.184C237.245 28.512 237.641 27.696 237.953 26.736H239.609C239.297 27.864 238.865 28.848 238.313 29.688C237.761 30.528 237.113 31.224 236.369 31.776C235.649 32.328 234.833 32.736 233.921 33C233.009 33.288 232.037 33.432 231.005 33.432ZM226.649 22.452H238.889C238.961 22.02 239.009 21.612 239.033 21.228C239.081 20.844 239.105 20.472 239.105 20.112C239.105 19.056 238.925 18.168 238.565 17.448C238.205 16.704 237.653 16.14 236.909 15.756C236.165 15.372 235.193 15.18 233.993 15.18C232.769 15.18 231.653 15.468 230.645 16.044C229.661 16.596 228.833 17.412 228.161 18.492C227.489 19.572 226.985 20.892 226.649 22.452ZM248.482 33.432C247.186 33.432 246.082 33.204 245.17 32.748C244.282 32.268 243.598 31.536 243.118 30.552C242.638 29.544 242.398 28.26 242.398 26.7C242.398 26.22 242.422 25.716 242.47 25.188C242.518 24.636 242.59 24.06 242.686 23.46C243.07 21.156 243.658 19.284 244.45 17.844C245.242 16.38 246.226 15.312 247.402 14.64C248.578 13.968 249.91 13.632 251.398 13.632C252.31 13.632 253.102 13.752 253.774 13.992C254.47 14.208 255.07 14.568 255.574 15.072C256.078 15.552 256.486 16.176 256.798 16.944H257.014L257.842 14.064H259.138L258.418 18.24C258.322 18.864 258.178 19.668 257.986 20.652C257.818 21.612 257.638 22.644 257.446 23.748C257.254 24.828 257.074 25.872 256.906 26.88C256.738 27.888 256.594 28.764 256.474 29.508C256.378 30.228 256.33 30.696 256.33 30.912C256.33 31.2 256.402 31.428 256.546 31.596C256.714 31.74 256.954 31.812 257.266 31.812H258.958L258.778 32.784C258.538 32.904 258.25 33.024 257.914 33.144C257.578 33.288 257.218 33.36 256.834 33.36C256.114 33.36 255.586 33.18 255.25 32.82C254.914 32.436 254.746 31.908 254.746 31.236C254.746 31.068 254.758 30.888 254.782 30.696C254.806 30.504 254.83 30.312 254.854 30.12L254.638 30.012C253.87 31.188 252.934 32.052 251.83 32.604C250.726 33.156 249.61 33.432 248.482 33.432ZM248.734 31.884C249.31 31.884 249.934 31.788 250.606 31.596C251.278 31.38 251.95 30.996 252.622 30.444C253.294 29.892 253.894 29.088 254.422 28.032C254.974 26.976 255.394 25.608 255.682 23.928C255.778 23.328 255.85 22.812 255.898 22.38C255.97 21.924 256.018 21.528 256.042 21.192C256.066 20.856 256.078 20.544 256.078 20.256C256.078 19.152 255.91 18.228 255.574 17.484C255.262 16.716 254.758 16.14 254.062 15.756C253.39 15.372 252.514 15.18 251.434 15.18C250.426 15.18 249.466 15.42 248.554 15.9C247.666 16.356 246.874 17.148 246.178 18.276C245.482 19.404 244.966 20.976 244.63 22.992C244.51 23.712 244.414 24.312 244.342 24.792C244.294 25.248 244.258 25.644 244.234 25.98C244.21 26.316 244.198 26.628 244.198 26.916C244.198 28.668 244.582 29.94 245.35 30.732C246.142 31.5 247.27 31.884 248.734 31.884ZM260.199 33L264.771 6.972H266.499L261.927 33H260.199ZM269.903 33.396C269.279 33.396 268.775 33.312 268.391 33.144C268.031 32.976 267.767 32.748 267.599 32.46C267.455 32.148 267.383 31.764 267.383 31.308C267.383 31.164 267.395 31.008 267.419 30.84C267.443 30.672 267.467 30.504 267.491 30.336L270.083 15.612H267.419L267.707 14.064H270.335L271.631 8.808H272.999L272.063 14.064H275.951L275.663 15.612H271.811L269.291 29.832C269.267 30.048 269.231 30.252 269.183 30.444C269.159 30.612 269.147 30.768 269.147 30.912C269.147 31.248 269.231 31.5 269.399 31.668C269.591 31.812 269.927 31.884 270.407 31.884H272.819L272.639 32.892C272.375 33.012 272.075 33.108 271.739 33.18C271.427 33.252 271.103 33.3 270.767 33.324C270.455 33.372 270.167 33.396 269.903 33.396ZM275.071 39.552C274.831 39.552 274.507 39.54 274.099 39.516C273.691 39.492 273.355 39.468 273.091 39.444L273.307 38.076H274.783C275.455 38.076 276.079 37.956 276.655 37.716C277.255 37.476 277.867 36.972 278.491 36.204C279.115 35.46 279.811 34.308 280.579 32.748L276.799 14.064H278.563L280.507 24.612C280.603 25.116 280.711 25.74 280.831 26.484C280.975 27.204 281.119 27.948 281.263 28.716C281.407 29.46 281.527 30.132 281.623 30.732H281.803C282.019 30.3 282.247 29.808 282.487 29.256C282.751 28.704 283.015 28.152 283.279 27.6C283.567 27.024 283.831 26.484 284.071 25.98C284.335 25.452 284.563 24.996 284.755 24.612L290.119 14.064H291.955L282.163 33C281.611 34.056 281.095 34.992 280.615 35.808C280.159 36.624 279.667 37.308 279.139 37.86C278.635 38.412 278.059 38.832 277.411 39.12C276.763 39.408 275.983 39.552 275.071 39.552Z" fill="#F5F5F5"/>
<mask id="mask0_501_44" style="mask-type:alpha" maskUnits="userSpaceOnUse" x="44" y="0" width="20" height="42">
<rect width="20" height="42" transform="matrix(-1 0 0 1 64 0)" fill="#D9D9D9"/>
</mask>
<g mask="url(#mask0_501_44)">
<path d="M51.1333 12.1999H54.8666V8.46655H51.1333V12.1999ZM51.1333 22.8666H54.8666V19.1332H51.1333V22.8666ZM51.1333 33.5332H54.8666V29.7999H51.1333V33.5332ZM46.8666 41.5332V39.6666H61V2.33322H34.8666V8.79989L33 7.46655V0.466553H62.8666V41.5332H46.8666ZM11.1333 41.5332V20.0666L26.3333 9.26655L41.5333 20.0666V41.5332H29.9333V29.9332H22.7333V41.5332H11.1333ZM13 39.6666H20.8666V28.0666H31.8V39.6666H39.6666V20.9999L26.3333 11.6666L13 20.9999V39.6666Z" fill="#D7EB6E"/>
</g>
<mask id="mask1_501_44" style="mask-type:alpha" maskUnits="userSpaceOnUse" x="32" y="0" width="32" height="11">
<rect width="32" height="11" transform="matrix(-1 0 0 1 64 0)" fill="#D9D9D9"/>
</mask>
<g mask="url(#mask1_501_44)">
<path d="M51.1333 12.1999H54.8666V8.46655H51.1333V12.1999ZM51.1333 22.8666H54.8666V19.1332H51.1333V22.8666ZM51.1333 33.5332H54.8666V29.7999H51.1333V33.5332ZM46.8666 41.5332V39.6666H61V2.33322H34.8666V8.79989L33 7.46655V0.466553H62.8666V41.5332H46.8666ZM11.1333 41.5332V20.0666L26.3333 9.26655L41.5333 20.0666V41.5332H29.9333V29.9332H22.7333V41.5332H11.1333ZM13 39.6666H20.8666V28.0666H31.8V39.6666H39.6666V20.9999L26.3333 11.6666L13 20.9999V39.6666Z" fill="#D7EB6E"/>
</g>
<path d="M0.466675 41.5334V12.7334L29 1.7334V24.4667H34.0667C34.0667 23.4401 34.4318 22.5612 35.1619 21.8301C35.8921 21.099 36.7699 20.7334 37.7953 20.7334C38.8207 20.7334 39.7 21.099 40.4333 21.8301C41.1667 22.5612 41.5333 23.4401 41.5333 24.4667V41.5334H0.466675ZM2.33334 39.6667H16.4667V24.4667H27.1333V4.40006L2.33334 14.0001V39.6667ZM18.3333 39.6667H27.1333V34.0667H30.8667V39.6667H39.6667V26.3334H18.3333V39.6667Z" fill="#D7EB6E"/>
</svg>
